<svg width="359" height="359" viewBox="0 0 359 359" fill="none" xmlns="http://www.w3.org/2000/svg">
<path d="M5.25663 151.09C5.36423 150.451 5.55846 149.912 5.83932 149.473C6.10836 149.031 6.48881 148.614 6.98069 148.223L7.83124 149.242C7.47762 149.535 7.20092 149.842 7.00114 150.161C6.80335 150.468 6.67058 150.823 6.60284 151.226C6.44743 152.149 6.72031 152.949 7.4215 153.627C8.11085 154.303 9.33121 154.788 11.0826 155.083C12.7866 155.37 14.0927 155.31 15.0008 154.903C15.8971 154.494 16.423 153.828 16.5784 152.905C16.6561 152.444 16.64 152.033 16.5302 151.674C16.4203 151.315 16.2385 150.913 15.9847 150.469L17.1014 149.799C17.8632 150.84 18.1394 151.982 17.9302 153.224C17.7768 154.135 17.4037 154.906 16.8108 155.536C16.2199 156.155 15.4172 156.586 14.4028 156.829C13.3786 157.058 12.1742 157.056 10.7897 156.823C9.41698 156.591 8.29118 156.195 7.41225 155.633C6.53531 155.06 5.91895 154.384 5.56317 153.606C5.20938 152.816 5.1072 151.978 5.25663 151.09Z" fill="white"/>
<path d="M20.5129 141.03C20.3747 141.589 20.0963 141.99 19.6779 142.233C19.2594 142.476 18.7473 142.522 18.1415 142.372L6.92309 139.6L7.13703 137.984L18.4778 140.787C18.9321 140.899 19.2054 140.769 19.2975 140.396C19.3349 140.245 19.3417 140.067 19.3179 139.863L20.5051 139.786C20.6111 140.208 20.6136 140.622 20.5129 141.03Z" fill="white"/>
<path d="M13.9076 128.782L22.9452 131.604L22.4623 133.15L13.4247 130.328L13.9076 128.782ZM9.40511 128.224C9.49811 127.926 9.67059 127.716 9.92255 127.594C10.1781 127.46 10.449 127.438 10.7354 127.527C11.0218 127.616 11.2337 127.783 11.3712 128.027C11.4972 128.268 11.512 128.543 11.4154 128.852C11.3224 129.15 11.1538 129.367 10.9098 129.505C10.6578 129.627 10.3886 129.644 10.1023 129.555C9.81591 129.465 9.60398 129.298 9.46649 129.054C9.33257 128.799 9.31211 128.522 9.40511 128.224Z" fill="white"/>
<path d="M17.7778 117.183C17.961 116.713 18.2073 116.313 18.5165 115.983C18.8257 115.653 19.2122 115.372 19.676 115.141L20.3197 116.165C20.0026 116.351 19.7413 116.558 19.536 116.787C19.3195 117.012 19.1502 117.281 19.028 117.594C18.7706 118.253 18.8494 118.876 19.2643 119.463C19.6836 120.039 20.4857 120.558 21.6707 121.021C23.8841 121.885 25.2613 121.624 25.8023 120.238C25.9245 119.925 25.9854 119.62 25.9852 119.324C25.9737 119.023 25.9185 118.686 25.8196 118.312L27.0167 117.968C27.3858 118.936 27.3937 119.873 27.0403 120.779C26.5996 121.908 25.8615 122.644 24.8259 122.987C23.7947 123.318 22.5413 123.196 21.0657 122.62C20.1043 122.245 19.3282 121.775 18.7374 121.209C18.151 120.633 17.7724 120.002 17.6018 119.317C17.4355 118.621 17.4942 117.909 17.7778 117.183Z" fill="white"/>
<path d="M19.1639 104.538L31.2823 110.447L30.5723 111.903L18.6158 106.073L19.1639 104.538ZM24.957 101.816L27.3389 106.542L33.6015 105.69L32.8126 107.308L26.6621 108.094L24.2155 103.337L24.957 101.816Z" fill="white"/>
<path d="M39.1558 78.3897C39.5497 77.8305 40.075 77.5327 40.7318 77.4963C41.3788 77.4529 42.0506 77.6766 42.7471 78.1673L48.3833 82.1373L47.4607 83.447L41.9717 79.5806C41.0299 78.9172 40.3448 78.8896 39.9164 79.4979C39.5017 80.0865 39.5729 80.944 40.13 82.0702L45.6778 85.9781L44.7553 87.2878L39.2663 83.4214C38.3245 82.758 37.6394 82.7304 37.2109 83.3387C36.7894 83.9371 36.8606 84.7946 37.4245 85.911L42.9724 89.8189L42.0498 91.1286L34.3093 85.6763L35.1179 84.5284L36.3235 85.2236C35.8414 84.0326 35.8837 83.0349 36.4503 82.2305C36.7475 81.8086 37.1223 81.5369 37.5749 81.4154C38.0275 81.2938 38.5243 81.3282 39.0655 81.5186C38.5452 80.2567 38.5753 79.2137 39.1558 78.3897Z" fill="white"/>
<path d="M53.8587 67.7207C54.0492 67.8856 54.2546 68.0792 54.4748 68.3015L50.8707 72.4667C51.737 73.1528 52.4857 73.5071 53.1169 73.5296C53.739 73.5442 54.2738 73.2929 54.7214 72.7756C55.0041 72.449 55.2054 72.1154 55.3254 71.7749C55.4533 71.4254 55.5256 71.0118 55.5421 70.5342L56.7347 70.614C56.7525 71.8037 56.3924 72.8251 55.6543 73.6781C54.8455 74.6128 53.8952 75.06 52.8034 75.0197C51.7103 74.9625 50.5785 74.4275 49.4079 73.4146C48.2373 72.4017 47.5237 71.3557 47.2671 70.2768C47.0015 69.19 47.2456 68.2111 47.9993 67.3399C48.7453 66.4779 49.627 66.0824 50.6445 66.1535C51.653 66.2168 52.7244 66.7392 53.8587 67.7207ZM52.4664 68.5869C50.9692 67.2914 49.7926 67.1381 48.9367 68.1272C48.5441 68.5809 48.4245 69.1043 48.5779 69.6972C48.7223 70.2823 49.2007 70.9581 50.0132 71.7247L52.6162 68.7165L52.4664 68.5869Z" fill="white"/>
<path d="M54.9363 55.9778L60.6235 61.9493L59.6812 62.8908L53.714 57.1992L54.9363 55.9778ZM61.6282 63.897C61.8659 63.6595 62.1375 63.5493 62.443 63.5664C62.7484 63.5665 63.0114 63.6769 63.232 63.8976C63.4525 64.1183 63.5669 64.3857 63.5753 64.6996C63.5922 65.0051 63.4818 65.2766 63.2441 65.5141C63.0149 65.7431 62.7433 65.8533 62.4294 65.8447C62.1239 65.8276 61.8609 65.7087 61.6404 65.488C61.4198 65.2673 61.3054 65.0085 61.297 64.7115C61.2886 64.3975 61.3991 64.126 61.6282 63.897Z" fill="white"/>
<path d="M73.0547 39.9645C73.5709 39.5728 74.0819 39.3131 74.5875 39.1854C75.086 39.0482 75.6485 39.0054 76.2752 39.0571L76.1963 40.3823C75.7378 40.3537 75.3263 40.3873 74.9621 40.4829C74.6074 40.5713 74.2675 40.7388 73.9425 40.9855C73.1969 41.5513 72.8472 42.3213 72.8935 43.2955C72.9326 44.2601 73.4889 45.4497 74.5626 46.8645C75.6071 48.241 76.5996 49.0922 77.5398 49.4181C78.4728 49.7344 79.3121 49.6097 80.0578 49.0438C80.4306 48.7609 80.7 48.451 80.8661 48.1141C81.0322 47.7771 81.1751 47.3599 81.2946 46.8624L82.567 47.1396C82.4087 48.4197 81.8276 49.4406 80.8239 50.2023C80.0879 50.7609 79.288 51.0666 78.4243 51.1195C77.5701 51.1651 76.6904 50.9289 75.785 50.4108C74.882 49.8759 74.0061 49.0493 73.1574 47.9308C72.3159 46.822 71.7675 45.7619 71.5122 44.7505C71.2664 43.7319 71.2804 42.8174 71.5542 42.007C71.8376 41.1894 72.3378 40.5086 73.0547 39.9645Z" fill="white"/>
<path d="M91.0601 43.0897C90.5764 43.4023 90.0989 43.5037 89.6278 43.3937C89.1568 43.2838 88.7519 42.9668 88.4132 42.4427L82.1416 32.7366L83.4045 31.7062L89.7446 41.5181C89.9986 41.9112 90.2868 42.0035 90.6094 41.7951C90.7404 41.7104 90.867 41.5858 90.9892 41.4211L91.907 42.1782C91.6952 42.5579 91.4129 42.8618 91.0601 43.0897Z" fill="white"/>
<path d="M94.6411 29.6427L99.2903 37.8907L97.8791 38.6861L93.2299 30.4382L94.6411 29.6427ZM91.7435 26.1517C92.0153 25.9985 92.2849 25.9636 92.5523 26.0471C92.8302 26.1246 93.0428 26.2941 93.1901 26.5554C93.3374 26.8167 93.3775 27.0834 93.3105 27.3554C93.2375 27.6169 93.0599 27.8273 92.7776 27.9863C92.5058 28.1396 92.2339 28.1826 91.9619 28.1155C91.6945 28.0321 91.4871 27.8597 91.3398 27.5984C91.1925 27.337 91.1524 27.0704 91.2195 26.7984C91.297 26.5205 91.4717 26.3049 91.7435 26.1517Z" fill="white"/>
<path d="M105.407 23.846C105.863 23.6296 106.316 23.507 106.767 23.4784C107.219 23.4498 107.693 23.5102 108.189 23.6595L107.956 24.8465C107.598 24.7643 107.266 24.7362 106.959 24.7624C106.648 24.7777 106.34 24.8575 106.037 25.0018C105.397 25.3058 105.028 25.8137 104.928 26.5257C104.838 27.2324 105.067 28.1602 105.613 29.3089C106.633 31.4547 107.815 32.2081 109.159 31.5692C109.463 31.4249 109.716 31.2447 109.919 31.0287C110.117 30.8018 110.307 30.5184 110.491 30.1785L111.599 30.7479C111.204 31.7063 110.568 32.3942 109.69 32.8115C108.596 33.332 107.554 33.3623 106.564 32.9026C105.586 32.4377 104.757 31.49 104.077 30.0595C103.633 29.1275 103.39 28.2531 103.348 27.4364C103.315 26.6145 103.472 25.8956 103.817 25.2798C104.173 24.6589 104.703 24.1809 105.407 23.846Z" fill="white"/>
<path d="M115.081 15.5853L119.859 28.1921L118.344 28.7663L113.63 16.3279L115.081 15.5853ZM121.166 17.5715L119.663 22.6457L124.808 26.3163L123.125 26.9543L118.106 23.3127L119.584 18.1712L121.166 17.5715Z" fill="white"/>
<path d="M147.558 10.2368C148.228 10.0994 148.815 10.2424 149.319 10.6659C149.819 11.0777 150.156 11.7008 150.327 12.5355L151.712 19.2889L150.143 19.6108L148.794 13.0337C148.562 11.9052 148.082 11.4156 147.353 11.5651C146.648 11.7098 146.112 12.3831 145.746 13.5852L147.11 20.2328L145.54 20.5547L144.191 13.9776C143.96 12.8491 143.48 12.3596 142.751 12.509C142.034 12.6561 141.498 13.3295 141.144 14.5291L142.507 21.1767L140.938 21.4986L139.036 12.2237L140.411 11.9416L140.813 13.274C141.278 12.0762 141.992 11.3784 142.956 11.1807C143.462 11.077 143.921 11.136 144.334 11.3575C144.747 11.5791 145.085 11.9446 145.349 12.454C145.834 11.1784 146.571 10.4393 147.558 10.2368Z" fill="white"/>
<path d="M165.578 12.5397C165.604 12.7904 165.621 13.0721 165.629 13.3849L160.15 13.9494C160.311 15.0427 160.613 15.8137 161.057 16.2625C161.501 16.6994 162.062 16.8828 162.743 16.8127C163.172 16.7685 163.548 16.6635 163.868 16.4977C164.201 16.3308 164.537 16.079 164.876 15.7425L165.69 16.6177C164.888 17.4965 163.926 17.9937 162.804 18.1093C161.574 18.236 160.576 17.9106 159.808 17.1332C159.051 16.3426 158.593 15.1773 158.435 13.6375C158.276 12.0976 158.473 10.8469 159.025 9.88522C159.576 8.91161 160.425 8.36579 161.571 8.24773C162.705 8.13091 163.618 8.44699 164.31 9.19598C165.002 9.93303 165.424 11.0476 165.578 12.5397ZM163.97 12.2167C163.767 10.2472 163.015 9.32941 161.714 9.46345C161.117 9.52493 160.672 9.82418 160.377 10.3612C160.081 10.8863 159.967 11.7063 160.033 12.8214L163.991 12.4137L163.97 12.2167Z" fill="white"/>
<path d="M174.409 4.7246L174.46 12.9708L173.128 13.011L172.682 4.77676L174.409 4.7246ZM173.857 15.078C174.193 15.0678 174.466 15.1736 174.677 15.3954C174.899 15.6047 175.015 15.8654 175.025 16.1772C175.034 16.4891 174.934 16.7622 174.725 16.9966C174.528 17.2307 174.262 17.3528 173.926 17.3629C173.602 17.3727 173.329 17.2669 173.106 17.0455C172.895 16.8238 172.785 16.557 172.776 16.2451C172.766 15.9333 172.86 15.6663 173.058 15.4443C173.267 15.2099 173.533 15.0878 173.857 15.078Z" fill="white"/>
<path d="M187.947 4.63258C188.595 4.66192 189.154 4.78935 189.624 5.01487C190.095 5.22841 190.554 5.55555 191.003 5.99631L190.094 6.96416C189.76 6.64871 189.422 6.41118 189.081 6.25158C188.752 6.09251 188.384 6.00374 187.976 5.98527C187.041 5.9429 186.28 6.3108 185.692 7.08898C185.105 7.85518 184.771 9.12537 184.69 10.8995C184.612 12.6258 184.83 13.915 185.344 14.7671C185.858 15.6073 186.583 16.0485 187.518 16.0909C187.986 16.1121 188.391 16.0464 188.734 15.8938C189.078 15.7411 189.454 15.512 189.865 15.2062L190.665 16.2335C189.724 17.1158 188.624 17.5285 187.366 17.4714C186.442 17.4296 185.632 17.1526 184.935 16.6405C184.249 16.1289 183.724 15.3844 183.36 14.4069C183.009 13.418 182.865 12.2222 182.928 10.8197C182.991 9.42911 183.248 8.26355 183.699 7.32301C184.162 6.38301 184.758 5.68928 185.487 5.24183C186.228 4.79492 187.048 4.59184 187.947 4.63258Z" fill="white"/>
<path d="M199.783 18.5569C199.211 18.4875 198.779 18.2599 198.488 17.8739C198.196 17.488 198.088 16.9853 198.163 16.3658L199.555 4.89398L201.185 4.91047L199.778 16.5074C199.721 16.972 199.884 17.2274 200.265 17.2737C200.42 17.2925 200.597 17.2777 200.796 17.2293L201.017 18.3985C200.611 18.5547 200.2 18.6075 199.783 18.5569Z" fill="white"/>
<path d="M211.14 10.5156L209.434 19.8286L207.841 19.5367L209.547 10.2237L211.14 10.5156ZM211.148 5.97866C211.455 6.03488 211.684 6.18061 211.836 6.41587C212 6.65328 212.055 6.91954 212.001 7.21463C211.947 7.50972 211.807 7.7403 211.581 7.90637C211.358 8.06063 211.087 8.10858 210.768 8.0502C210.461 7.99399 210.225 7.85308 210.059 7.62746C209.907 7.39221 209.858 7.12704 209.912 6.83195C209.966 6.53685 210.106 6.30628 210.331 6.14021C210.569 5.9763 210.841 5.92245 211.148 5.97866Z" fill="white"/>
<path d="M223.122 12.9511C223.611 13.0761 224.037 13.272 224.403 13.539C224.768 13.8059 225.093 14.1555 225.379 14.5878L224.44 15.3509C224.218 15.0586 223.981 14.8245 223.728 14.6484C223.479 14.4607 223.192 14.3252 222.866 14.2419C222.18 14.0663 221.571 14.2201 221.039 14.7031C220.518 15.1892 220.1 16.0483 219.784 17.2806C219.195 19.5824 219.621 20.9178 221.063 21.2868C221.388 21.3701 221.698 21.3937 221.992 21.3575C222.29 21.3097 222.617 21.214 222.976 21.0705L223.463 22.2171C222.547 22.7009 221.617 22.8222 220.676 22.5812C219.502 22.2806 218.682 21.6372 218.216 20.6508C217.761 19.6674 217.731 18.4085 218.123 16.874C218.379 15.8742 218.752 15.0468 219.242 14.3918C219.743 13.7398 220.323 13.2875 220.983 13.0351C221.653 12.7857 222.367 12.7577 223.122 12.9511Z" fill="white"/>
<path d="M235.842 12.7942L231.446 25.5394L229.915 25.0112L234.252 12.4361L235.842 12.7942ZM239.247 18.2145L234.845 21.1517L236.449 27.2649L234.747 26.678L233.222 20.6681L237.647 17.6628L239.247 18.2145Z" fill="white"/>
<path d="M264.221 29.4688C264.824 29.792 265.183 30.2774 265.299 30.9249C265.42 31.5619 265.28 32.2558 264.877 33.0067L261.62 39.0825L260.208 38.3255L263.38 32.4084C263.925 31.3931 263.869 30.7097 263.213 30.3581C262.579 30.0179 261.736 30.1925 260.686 30.882L257.479 36.8626L256.067 36.1056L259.24 30.1884C259.784 29.1732 259.729 28.4897 259.073 28.1382C258.428 27.7923 257.585 27.9669 256.545 28.6621L253.339 34.6427L251.927 33.8857L256.401 25.5414L257.638 26.2048L257.094 27.4859C258.218 26.8629 259.213 26.7839 260.081 27.2489C260.535 27.4927 260.851 27.8319 261.026 28.2664C261.202 28.7009 261.228 29.1982 261.104 29.7584C262.294 29.089 263.333 28.9925 264.221 29.4688Z" fill="white"/>
<path d="M276.594 42.7702C276.453 42.9793 276.286 43.2067 276.092 43.4522L271.521 40.3796C270.944 41.3226 270.684 42.1088 270.738 42.738C270.799 43.3573 271.113 43.8577 271.681 44.2393C272.039 44.4803 272.395 44.6397 272.747 44.7176C273.11 44.8022 273.529 44.8237 274.005 44.7823L274.07 45.9757C272.892 46.1376 271.834 45.904 270.898 45.2747C269.872 44.5852 269.313 43.6962 269.221 42.6075C269.145 41.5155 269.539 40.3272 270.402 39.0424C271.266 37.7577 272.218 36.9226 273.257 36.5371C274.304 36.1417 275.305 36.2653 276.261 36.9079C277.208 37.5439 277.707 38.3711 277.76 39.3898C277.819 40.3985 277.43 41.5253 276.594 42.7702ZM275.565 41.4932C276.67 39.8499 276.679 38.6635 275.594 37.9338C275.096 37.5991 274.562 37.5438 273.992 37.768C273.428 37.9822 272.815 38.539 272.153 39.4385L275.455 41.6576L275.565 41.4932Z" fill="white"/>
<path d="M288.381 42.4163L283.142 48.7854L282.094 47.9642L287.02 41.351L288.381 42.4163ZM281.331 50.0189C281.595 50.226 281.738 50.4822 281.758 50.7875C281.795 51.0907 281.717 51.3652 281.525 51.6108C281.332 51.8565 281.081 52.0025 280.77 52.0489C280.469 52.1026 280.186 52.0259 279.922 51.8188C279.667 51.6191 279.524 51.3629 279.495 51.0502C279.475 50.7449 279.561 50.4694 279.753 50.2238C279.945 49.9781 280.188 49.8331 280.482 49.7888C280.793 49.7424 281.076 49.8191 281.331 50.0189Z" fill="white"/>
<path d="M306.472 58.4599C306.924 58.9248 307.243 59.4005 307.431 59.887C307.628 60.3651 307.739 60.9183 307.763 61.5467L306.438 61.629C306.411 61.1703 306.328 60.766 306.189 60.416C306.058 60.0746 305.85 59.7576 305.566 59.4649C304.914 58.7934 304.108 58.5396 303.146 58.7037C302.193 58.8594 301.08 59.5558 299.806 60.793C298.566 61.9968 297.841 63.0851 297.632 64.0579C297.431 65.0224 297.657 65.8404 298.309 66.5119C298.635 66.8477 298.975 67.0776 299.33 67.2016C299.684 67.3256 300.116 67.4168 300.624 67.4752L300.503 68.7718C299.213 68.7698 298.129 68.3168 297.252 67.4128C296.608 66.7499 296.207 65.993 296.05 65.1421C295.901 64.2997 296.029 63.3978 296.434 62.4364C296.855 61.4752 297.57 60.5055 298.577 59.5275C299.576 58.5578 300.561 57.8849 301.534 57.5089C302.516 57.1414 303.425 57.0445 304.263 57.2181C305.109 57.4002 305.845 57.8142 306.472 58.4599Z" fill="white"/>
<path d="M305.552 76.7116C305.184 76.2693 305.025 75.8077 305.077 75.3267C305.129 74.8458 305.395 74.4055 305.874 74.0058L314.748 66.6038L315.924 67.7325L306.953 75.2153C306.594 75.515 306.537 75.8123 306.783 76.1072C306.883 76.227 307.022 76.3376 307.2 76.4389L306.56 77.4417C306.157 77.2775 305.822 77.0341 305.552 76.7116Z" fill="white"/>
<path d="M319.335 78.6359L311.711 84.2506L310.75 82.9462L318.374 77.3315L319.335 78.6359ZM322.449 75.3365C322.634 75.5877 322.701 75.8511 322.651 76.1267C322.607 76.4119 322.465 76.6435 322.223 76.8214C321.982 76.9993 321.722 77.0714 321.444 77.0378C321.175 76.9971 320.945 76.8463 320.753 76.5854C320.568 76.3342 320.492 76.0695 320.526 75.7914C320.576 75.5158 320.722 75.2891 320.964 75.1112C321.205 74.9332 321.465 74.8611 321.743 74.8947C322.028 74.938 322.264 75.0853 322.449 75.3365Z" fill="white"/>
<path d="M326.394 88.62C326.664 89.0456 326.84 89.4807 326.923 89.9253C327.006 90.37 327.004 90.8477 326.916 91.3583L325.709 91.2711C325.748 90.9058 325.735 90.5726 325.672 90.2715C325.619 89.9641 325.503 89.6685 325.323 89.3847C324.943 88.7869 324.394 88.4815 323.676 88.4686C322.963 88.4658 322.07 88.8051 320.996 89.4865C318.99 90.7594 318.385 92.024 319.182 93.2805C319.362 93.5642 319.572 93.7937 319.811 93.9689C320.06 94.1376 320.364 94.2927 320.724 94.434L320.293 95.6027C319.294 95.3271 318.534 94.7789 318.013 93.9581C317.364 92.9347 317.208 91.9042 317.544 90.8665C317.887 89.8389 318.727 88.9008 320.065 88.0522C320.936 87.4994 321.774 87.1522 322.58 87.0106C323.392 86.8792 324.124 86.9474 324.778 87.2152C325.437 87.4931 325.976 87.9614 326.394 88.62Z" fill="white"/>
<path d="M335.766 97.2206L323.831 103.492L323.078 102.058L334.853 95.8703L335.766 97.2206ZM334.532 103.501L329.313 102.625L326.293 108.177L325.456 106.583L328.462 101.16L333.745 102.004L334.532 103.501Z" fill="white"/>
<path d="M345.012 128.811C345.23 129.459 345.159 130.059 344.8 130.61C344.452 131.157 343.874 131.566 343.066 131.837L336.53 134.031L336.021 132.512L342.386 130.376C343.478 130.009 343.906 129.473 343.669 128.768C343.44 128.085 342.706 127.635 341.469 127.418L335.036 129.577L334.526 128.058L340.891 125.922C341.983 125.555 342.411 125.019 342.174 124.314C341.941 123.62 341.208 123.17 339.974 122.964L333.541 125.123L333.031 123.604L342.007 120.592L342.454 121.923L341.18 122.483C342.425 122.799 343.204 123.424 343.517 124.357C343.682 124.846 343.679 125.309 343.509 125.746C343.339 126.182 343.017 126.563 342.544 126.886C343.869 127.214 344.692 127.855 345.012 128.811Z" fill="white"/>
<path d="M344.91 146.976C344.665 147.032 344.387 147.083 344.078 147.129L342.853 141.759C341.787 142.051 341.059 142.445 340.667 142.941C340.287 143.433 340.173 144.013 340.325 144.68C340.421 145.101 340.571 145.461 340.774 145.759C340.981 146.069 341.271 146.372 341.646 146.668L340.876 147.582C339.907 146.893 339.296 145.998 339.046 144.898C338.771 143.693 338.973 142.662 339.652 141.806C340.344 140.959 341.446 140.363 342.955 140.019C344.464 139.675 345.73 139.719 346.751 140.15C347.784 140.579 348.429 141.356 348.685 142.479C348.939 143.59 348.735 144.535 348.076 145.313C347.428 146.088 346.373 146.643 344.91 146.976ZM345.036 145.341C346.967 144.901 347.786 144.044 347.496 142.768C347.362 142.183 347.011 141.777 346.443 141.55C345.885 141.32 345.058 141.306 343.959 141.507L344.843 145.386L345.036 145.341Z" fill="white"/>
<path d="M353.739 154.794L345.559 155.845L345.358 154.528L353.477 153.086L353.739 154.794ZM343.395 155.502C343.445 155.834 343.374 156.118 343.179 156.354C342.998 156.6 342.753 156.747 342.445 156.794C342.137 156.841 341.853 156.775 341.595 156.596C341.339 156.429 341.186 156.18 341.135 155.847C341.086 155.527 341.158 155.243 341.351 154.995C341.545 154.759 341.797 154.617 342.105 154.57C342.413 154.523 342.69 154.584 342.934 154.753C343.192 154.932 343.346 155.182 343.395 155.502Z" fill="white"/>
<path d="M353.36 207.481C353.252 208.12 353.058 208.659 352.777 209.099C352.508 209.54 352.128 209.957 351.636 210.349L350.785 209.329C351.139 209.036 351.416 208.73 351.615 208.41C351.813 208.103 351.946 207.748 352.014 207.346C352.169 206.423 351.896 205.622 351.195 204.944C350.506 204.269 349.285 203.783 347.534 203.488C345.83 203.201 344.524 203.261 343.616 203.668C342.719 204.077 342.193 204.743 342.038 205.666C341.96 206.128 341.976 206.538 342.086 206.897C342.196 207.256 342.378 207.658 342.632 208.102L341.515 208.772C340.753 207.731 340.477 206.59 340.686 205.347C340.84 204.436 341.213 203.665 341.806 203.035C342.397 202.416 343.199 201.986 344.214 201.743C345.238 201.514 346.442 201.516 347.827 201.749C349.199 201.98 350.325 202.376 351.204 202.938C352.081 203.512 352.698 204.187 353.053 204.965C353.407 205.755 353.509 206.594 353.36 207.481Z" fill="white"/>
<path d="M338.104 217.541C338.242 216.982 338.52 216.581 338.939 216.338C339.357 216.096 339.869 216.049 340.475 216.199L351.693 218.972L351.479 220.588L340.139 217.785C339.684 217.672 339.411 217.803 339.319 218.175C339.282 218.327 339.275 218.504 339.299 218.708L338.111 218.785C338.005 218.364 338.003 217.949 338.104 217.541Z" fill="white"/>
<path d="M344.709 229.79L335.671 226.967L336.154 225.421L345.192 228.243L344.709 229.79ZM349.211 230.347C349.118 230.645 348.946 230.855 348.694 230.977C348.438 231.111 348.167 231.134 347.881 231.044C347.595 230.955 347.383 230.788 347.245 230.544C347.119 230.303 347.105 230.029 347.201 229.719C347.294 229.421 347.463 229.204 347.707 229.066C347.959 228.944 348.228 228.927 348.514 229.017C348.801 229.106 349.012 229.273 349.15 229.517C349.284 229.773 349.304 230.049 349.211 230.347Z" fill="white"/>
<path d="M340.839 241.388C340.655 241.858 340.409 242.258 340.1 242.588C339.791 242.918 339.404 243.199 338.94 243.43L338.297 242.406C338.614 242.22 338.875 242.013 339.08 241.784C339.297 241.559 339.466 241.291 339.588 240.978C339.846 240.318 339.767 239.695 339.352 239.108C338.933 238.532 338.131 238.013 336.946 237.55C334.732 236.686 333.355 236.947 332.814 238.334C332.692 238.647 332.631 238.951 332.631 239.248C332.643 239.548 332.698 239.886 332.797 240.259L331.6 240.603C331.231 239.635 331.223 238.698 331.576 237.792C332.017 236.663 332.755 235.927 333.791 235.584C334.822 235.253 336.075 235.375 337.551 235.951C338.512 236.326 339.288 236.796 339.879 237.362C340.465 237.939 340.844 238.569 341.015 239.254C341.181 239.95 341.122 240.662 340.839 241.388Z" fill="white"/>
<path d="M339.453 254.033L327.334 248.125L328.044 246.669L340.001 252.498L339.453 254.033ZM333.659 256.756L331.278 252.03L325.015 252.881L325.804 251.264L331.954 250.477L334.401 255.235L333.659 256.756Z" fill="white"/>
<path d="M319.461 280.182C319.067 280.741 318.541 281.039 317.885 281.075C317.238 281.118 316.566 280.895 315.869 280.404L310.233 276.434L311.156 275.124L316.645 278.991C317.587 279.654 318.272 279.682 318.7 279.074C319.115 278.485 319.044 277.627 318.486 276.501L312.939 272.593L313.861 271.284L319.35 275.15C320.292 275.813 320.977 275.841 321.406 275.233C321.827 274.634 321.756 273.777 321.192 272.66L315.644 268.752L316.567 267.443L324.307 272.895L323.499 274.043L322.293 273.348C322.775 274.539 322.733 275.536 322.166 276.341C321.869 276.763 321.494 277.034 321.042 277.156C320.589 277.278 320.092 277.243 319.551 277.053C320.071 278.315 320.041 279.358 319.461 280.182Z" fill="white"/>
<path d="M304.758 290.851C304.567 290.686 304.362 290.492 304.142 290.27L307.746 286.105C306.879 285.419 306.131 285.064 305.5 285.042C304.877 285.027 304.343 285.278 303.895 285.796C303.612 286.122 303.411 286.456 303.291 286.796C303.163 287.146 303.091 287.559 303.074 288.037L301.882 287.957C301.864 286.768 302.224 285.746 302.962 284.893C303.771 283.959 304.721 283.511 305.813 283.552C306.906 283.609 308.038 284.144 309.209 285.157C310.379 286.17 311.093 287.216 311.349 288.294C311.615 289.381 311.371 290.36 310.617 291.231C309.871 292.093 308.989 292.489 307.972 292.418C306.963 292.354 305.892 291.832 304.758 290.851ZM306.15 289.984C307.647 291.28 308.824 291.433 309.68 290.444C310.072 289.99 310.192 289.467 310.039 288.874C309.894 288.289 309.416 287.613 308.603 286.847L306 289.855L306.15 289.984Z" fill="white"/>
<path d="M303.68 302.594L297.993 296.622L298.935 295.68L304.902 301.372L303.68 302.594ZM296.988 294.674C296.751 294.912 296.479 295.022 296.173 295.005C295.868 295.005 295.605 294.894 295.384 294.674C295.164 294.453 295.05 294.186 295.041 293.872C295.024 293.566 295.135 293.295 295.372 293.057C295.602 292.828 295.873 292.718 296.187 292.727C296.493 292.744 296.756 292.863 296.976 293.083C297.197 293.304 297.311 293.563 297.319 293.86C297.328 294.174 297.217 294.445 296.988 294.674Z" fill="white"/>
<path d="M285.562 318.607C285.046 318.999 284.535 319.258 284.029 319.386C283.53 319.523 282.968 319.566 282.341 319.514L282.42 318.189C282.879 318.218 283.29 318.184 283.654 318.088C284.009 318 284.349 317.832 284.674 317.586C285.42 317.02 285.769 316.25 285.723 315.276C285.684 314.311 285.128 313.122 284.054 311.707C283.009 310.33 282.017 309.479 281.077 309.153C280.144 308.837 279.304 308.962 278.559 309.527C278.186 309.81 277.916 310.12 277.75 310.457C277.584 310.794 277.441 311.211 277.322 311.709L276.049 311.432C276.208 310.152 276.789 309.131 277.793 308.369C278.529 307.81 279.328 307.505 280.192 307.452C281.046 307.406 281.926 307.642 282.831 308.16C283.734 308.695 284.61 309.522 285.459 310.64C286.301 311.749 286.849 312.809 287.104 313.821C287.35 314.839 287.336 315.754 287.062 316.564C286.779 317.382 286.279 318.063 285.562 318.607Z" fill="white"/>
<path d="M267.556 315.482C268.04 315.169 268.518 315.068 268.989 315.178C269.46 315.288 269.865 315.605 270.203 316.129L276.475 325.835L275.212 326.865L268.872 317.053C268.618 316.66 268.33 316.568 268.007 316.776C267.876 316.861 267.749 316.986 267.627 317.15L266.709 316.393C266.921 316.013 267.204 315.71 267.556 315.482Z" fill="white"/>
<path d="M263.975 328.929L259.326 320.681L260.737 319.885L265.387 328.133L263.975 328.929ZM266.873 332.42C266.601 332.573 266.332 332.608 266.064 332.524C265.786 332.447 265.574 332.277 265.426 332.016C265.279 331.755 265.239 331.488 265.306 331.216C265.379 330.954 265.557 330.744 265.839 330.585C266.111 330.432 266.383 330.389 266.655 330.456C266.922 330.539 267.129 330.712 267.277 330.973C267.424 331.234 267.464 331.501 267.397 331.773C267.319 332.051 267.145 332.266 266.873 332.42Z" fill="white"/>
<path d="M253.209 334.725C252.754 334.942 252.301 335.064 251.849 335.093C251.398 335.122 250.924 335.061 250.428 334.912L250.661 333.725C251.019 333.807 251.351 333.835 251.657 333.809C251.969 333.794 252.276 333.714 252.58 333.57C253.219 333.266 253.589 332.758 253.689 332.046C253.778 331.339 253.55 330.411 253.003 329.262C251.983 327.117 250.801 326.363 249.457 327.002C249.154 327.146 248.901 327.327 248.698 327.543C248.5 327.77 248.309 328.053 248.125 328.393L247.017 327.823C247.412 326.865 248.048 326.177 248.926 325.76C250.021 325.239 251.063 325.209 252.052 325.669C253.03 326.134 253.86 327.081 254.54 328.512C254.983 329.444 255.226 330.318 255.269 331.135C255.301 331.957 255.144 332.676 254.799 333.291C254.444 333.912 253.914 334.39 253.209 334.725Z" fill="white"/>
<path d="M243.536 342.986L238.757 330.379L240.272 329.805L244.987 342.243L243.536 342.986ZM237.451 341L238.954 335.926L233.809 332.255L235.492 331.617L240.51 335.259L239.033 340.4L237.451 341Z" fill="white"/>
<path d="M211.058 348.334C210.388 348.472 209.801 348.329 209.298 347.905C208.797 347.494 208.461 346.87 208.29 346.036L206.905 339.282L208.474 338.961L209.823 345.538C210.054 346.666 210.535 347.156 211.263 347.006C211.969 346.861 212.504 346.188 212.87 344.986L211.507 338.338L213.076 338.017L214.425 344.594C214.657 345.722 215.137 346.212 215.866 346.062C216.583 345.915 217.118 345.242 217.472 344.042L216.109 337.395L217.678 337.073L219.581 346.348L218.205 346.63L217.803 345.297C217.339 346.495 216.624 347.193 215.66 347.391C215.155 347.494 214.696 347.435 214.283 347.214C213.87 346.992 213.531 346.627 213.268 346.117C212.782 347.393 212.045 348.132 211.058 348.334Z" fill="white"/>
<path d="M193.039 346.032C193.013 345.781 192.996 345.499 192.988 345.186L198.467 344.622C198.306 343.529 198.003 342.758 197.559 342.309C197.116 341.872 196.554 341.688 195.874 341.759C195.444 341.803 195.069 341.908 194.748 342.074C194.415 342.241 194.079 342.492 193.74 342.829L192.926 341.954C193.728 341.075 194.69 340.578 195.813 340.462C197.042 340.335 198.041 340.661 198.808 341.438C199.565 342.229 200.023 343.394 200.182 344.934C200.34 346.474 200.144 347.724 199.591 348.686C199.04 349.66 198.192 350.206 197.046 350.324C195.912 350.44 194.998 350.124 194.306 349.375C193.615 348.638 193.192 347.524 193.039 346.032ZM194.646 346.355C194.849 348.324 195.601 349.242 196.902 349.108C197.499 349.046 197.945 348.747 198.239 348.21C198.535 347.685 198.65 346.865 198.583 345.75L194.626 346.158L194.646 346.355Z" fill="white"/>
<path d="M184.208 353.847L184.157 345.6L185.488 345.56L185.935 353.795L184.208 353.847ZM184.759 343.493C184.424 343.503 184.15 343.398 183.939 343.176C183.717 342.967 183.601 342.706 183.592 342.394C183.582 342.082 183.682 341.809 183.891 341.575C184.088 341.341 184.355 341.219 184.69 341.208C185.014 341.199 185.288 341.304 185.51 341.526C185.721 341.747 185.831 342.014 185.841 342.326C185.85 342.638 185.756 342.905 185.559 343.127C185.35 343.361 185.083 343.484 184.759 343.493Z" fill="white"/>
<path d="M170.669 353.939C170.022 353.909 169.463 353.782 168.993 353.556C168.522 353.343 168.062 353.016 167.614 352.575L168.522 351.607C168.856 351.923 169.194 352.16 169.535 352.32C169.864 352.479 170.233 352.568 170.64 352.586C171.575 352.628 172.337 352.26 172.925 351.482C173.512 350.716 173.846 349.446 173.926 347.672C174.004 345.946 173.786 344.656 173.273 343.804C172.758 342.964 172.033 342.523 171.098 342.48C170.631 342.459 170.225 342.525 169.882 342.678C169.539 342.83 169.162 343.059 168.752 343.365L167.951 342.338C168.892 341.455 169.992 341.043 171.251 341.1C172.174 341.142 172.984 341.419 173.682 341.931C174.367 342.442 174.892 343.187 175.256 344.164C175.608 345.153 175.752 346.349 175.688 347.752C175.625 349.142 175.368 350.308 174.917 351.248C174.454 352.188 173.858 352.882 173.129 353.329C172.388 353.776 171.568 353.979 170.669 353.939Z" fill="white"/>
<path d="M158.834 340.014C159.405 340.084 159.837 340.312 160.129 340.698C160.42 341.083 160.529 341.586 160.453 342.206L159.061 353.677L157.431 353.661L158.839 342.064C158.895 341.599 158.733 341.344 158.351 341.298C158.197 341.279 158.02 341.294 157.82 341.342L157.599 340.173C158.005 340.017 158.417 339.964 158.834 340.014Z" fill="white"/>
<path d="M147.476 348.056L149.182 338.743L150.776 339.035L149.07 348.348L147.476 348.056ZM147.469 352.593C147.162 352.536 146.932 352.391 146.78 352.155C146.616 351.918 146.562 351.652 146.616 351.357C146.67 351.062 146.809 350.831 147.035 350.665C147.259 350.511 147.53 350.463 147.848 350.521C148.155 350.577 148.392 350.718 148.558 350.944C148.71 351.179 148.759 351.444 148.705 351.739C148.651 352.034 148.511 352.265 148.285 352.431C148.048 352.595 147.776 352.649 147.469 352.593Z" fill="white"/>
<path d="M135.494 345.62C135.006 345.495 134.579 345.299 134.214 345.032C133.849 344.765 133.523 344.416 133.238 343.983L134.176 343.22C134.399 343.513 134.636 343.747 134.888 343.923C135.137 344.11 135.425 344.246 135.75 344.329C136.436 344.505 137.045 344.351 137.578 343.868C138.098 343.382 138.517 342.523 138.832 341.291C139.421 338.989 138.995 337.653 137.554 337.284C137.228 337.201 136.918 337.178 136.624 337.214C136.327 337.261 135.999 337.357 135.64 337.501L135.153 336.354C136.07 335.87 136.999 335.749 137.941 335.99C139.115 336.291 139.935 336.934 140.401 337.92C140.855 338.904 140.886 340.163 140.493 341.697C140.237 342.697 139.864 343.524 139.375 344.179C138.873 344.831 138.293 345.284 137.634 345.536C136.963 345.785 136.25 345.813 135.494 345.62Z" fill="white"/>
<path d="M122.774 345.777L127.17 333.032L128.702 333.56L124.365 346.135L122.774 345.777ZM119.37 340.357L123.772 337.42L122.167 331.306L123.869 331.893L125.395 337.903L120.969 340.908L119.37 340.357Z" fill="white"/>
<path d="M94.3954 329.103C93.7925 328.779 93.4333 328.294 93.3175 327.646C93.1961 327.009 93.3367 326.315 93.7392 325.565L96.9968 319.489L98.4087 320.246L95.2362 326.163C94.6918 327.178 94.7475 327.862 95.4032 328.213C96.0378 328.553 96.8803 328.379 97.9307 327.689L101.137 321.709L102.549 322.466L99.3766 328.383C98.8323 329.398 98.8879 330.082 99.5436 330.433C100.189 330.779 101.031 330.604 102.071 329.909L105.278 323.929L106.69 324.686L102.216 333.03L100.978 332.366L101.522 331.085C100.398 331.708 99.403 331.787 98.5358 331.322C98.081 331.079 97.7659 330.739 97.5904 330.305C97.4149 329.87 97.3888 329.373 97.5121 328.813C96.3227 329.482 95.2837 329.579 94.3954 329.103Z" fill="white"/>
<path d="M82.0228 315.801C82.1634 315.592 82.3306 315.365 82.5246 315.119L87.0959 318.192C87.672 317.249 87.9329 316.463 87.8787 315.833C87.8178 315.214 87.5035 314.714 86.9358 314.332C86.5773 314.091 86.2218 313.932 85.8693 313.854C85.5068 313.769 85.0875 313.748 84.6114 313.789L84.5461 312.596C85.7249 312.434 86.7824 312.667 87.7185 313.297C88.7444 313.986 89.3035 314.875 89.3959 315.964C89.4716 317.056 89.0777 318.244 88.2142 319.529C87.3506 320.814 86.3989 321.649 85.359 322.034C84.3125 322.43 83.3112 322.306 82.3551 321.663C81.4089 321.028 80.9095 320.2 80.8568 319.182C80.7974 318.173 81.186 317.046 82.0228 315.801ZM83.0514 317.078C81.9468 318.721 81.9374 319.908 83.0229 320.638C83.5209 320.972 84.0549 321.028 84.6248 320.803C85.1881 320.589 85.801 320.032 86.4634 319.133L83.1618 316.914L83.0514 317.078Z" fill="white"/>
<path d="M70.2359 316.155L75.474 309.786L76.5228 310.607L71.5965 317.22L70.2359 316.155ZM77.2856 308.552C77.021 308.345 76.8787 308.089 76.8586 307.784C76.8217 307.481 76.8994 307.206 77.0918 306.96C77.2841 306.715 77.5356 306.569 77.8462 306.522C78.1474 306.469 78.4303 306.545 78.6948 306.752C78.9499 306.952 79.0922 307.208 79.1218 307.521C79.1418 307.826 79.0557 308.102 78.8634 308.348C78.671 308.593 78.428 308.738 78.1342 308.782C77.8235 308.829 77.5407 308.752 77.2856 308.552Z" fill="white"/>
<path d="M52.1444 300.111C51.6929 299.646 51.3732 299.171 51.1852 298.684C50.9886 298.206 50.8779 297.653 50.8532 297.025L52.1783 296.942C52.2055 297.401 52.2886 297.805 52.4277 298.155C52.5585 298.497 52.766 298.814 53.0502 299.106C53.7022 299.778 54.5089 300.032 55.4703 299.867C56.423 299.712 57.5365 299.015 58.8107 297.778C60.0504 296.574 60.775 295.486 60.9845 294.513C61.1854 293.549 60.9599 292.731 60.3078 292.059C59.9818 291.724 59.6415 291.494 59.2869 291.37C58.9323 291.246 58.5009 291.154 57.9926 291.096L58.1135 289.799C59.4034 289.801 60.4872 290.254 61.3649 291.158C62.0086 291.821 62.409 292.578 62.5662 293.429C62.715 294.271 62.5872 295.173 62.1827 296.135C61.7612 297.096 61.0468 298.066 60.0395 299.044C59.0408 300.013 58.055 300.686 57.0821 301.062C56.1007 301.43 55.1913 301.527 54.3537 301.353C53.5078 301.171 52.7713 300.757 52.1444 300.111Z" fill="white"/>
<path d="M53.064 281.86C53.4329 282.302 53.5914 282.764 53.5394 283.245C53.4873 283.726 53.2217 284.166 52.7425 284.566L43.8683 291.968L42.6925 290.839L51.6634 283.356C52.0228 283.056 52.0795 282.759 51.8336 282.464C51.7336 282.344 51.5945 282.234 51.4163 282.132L52.0565 281.13C52.4591 281.294 52.7949 281.537 53.064 281.86Z" fill="white"/>
<path d="M39.2818 279.935L46.9053 274.321L47.866 275.625L40.2425 281.24L39.2818 279.935ZM36.1678 283.235C35.9828 282.984 35.9155 282.72 35.9659 282.445C36.0092 282.159 36.1516 281.928 36.3931 281.75C36.6347 281.572 36.8945 281.5 37.1727 281.533C37.4411 281.574 37.6714 281.725 37.8635 281.986C38.0486 282.237 38.1243 282.502 38.0906 282.78C38.0403 283.055 37.8943 283.282 37.6527 283.46C37.4112 283.638 37.1513 283.71 36.8732 283.677C36.588 283.633 36.3528 283.486 36.1678 283.235Z" fill="white"/>
<path d="M32.2228 269.951C31.9528 269.526 31.7763 269.091 31.6931 268.646C31.61 268.201 31.6125 267.724 31.7006 267.213L32.9071 267.3C32.8688 267.666 32.8813 267.999 32.9444 268.3C32.9973 268.607 33.1138 268.903 33.2938 269.187C33.6731 269.784 34.2221 270.09 34.9409 270.103C35.6533 270.106 36.5465 269.766 37.6206 269.085C39.6268 267.812 40.2314 266.547 39.4343 265.291C39.2542 265.007 39.0447 264.778 38.8057 264.602C38.5565 264.434 38.2521 264.279 37.8924 264.137L38.3233 262.969C39.3225 263.244 40.0824 263.792 40.6031 264.613C41.2524 265.637 41.4088 266.667 41.0724 267.705C40.7296 268.732 39.8894 269.67 38.5518 270.519C37.6804 271.072 36.842 271.419 36.0365 271.561C35.2245 271.692 34.492 271.624 33.8389 271.356C33.1794 271.078 32.6407 270.61 32.2228 269.951Z" fill="white"/>
<path d="M22.8506 261.351L34.785 255.079L35.5386 256.513L23.7635 262.701L22.8506 261.351ZM24.0844 255.07L29.3034 255.947L32.3233 250.395L33.1606 251.988L30.1542 257.411L24.8715 256.568L24.0844 255.07Z" fill="white"/>
<path d="M13.6042 229.761C13.3865 229.112 13.4574 228.513 13.8167 227.962C14.1647 227.414 14.7426 227.005 15.5503 226.734L22.086 224.541L22.5957 226.059L16.2307 228.196C15.1386 228.562 14.7109 229.098 14.9476 229.803C15.1767 230.486 15.91 230.936 17.1475 231.154L23.5809 228.994L24.0906 230.513L17.7255 232.649C16.6334 233.016 16.2057 233.552 16.4424 234.257C16.6753 234.951 17.4087 235.401 18.6424 235.608L25.0757 233.448L25.5854 234.967L16.6095 237.98L16.1628 236.649L17.4366 236.088C16.1913 235.772 15.4121 235.147 15.099 234.215C14.9348 233.725 14.9377 233.262 15.1075 232.826C15.2774 232.389 15.5991 232.009 16.0728 231.685C14.7478 231.358 13.9249 230.716 13.6042 229.761Z" fill="white"/>
<path d="M13.706 211.595C13.9517 211.539 14.2293 211.488 14.5388 211.442L15.7633 216.812C16.829 216.52 17.5576 216.126 17.9493 215.631C18.3293 215.138 18.4432 214.558 18.2912 213.891C18.1951 213.47 18.0454 213.11 17.842 212.812C17.636 212.502 17.3453 212.199 16.9701 211.903L17.7402 210.989C18.7098 211.679 19.32 212.573 19.5707 213.673C19.8455 214.878 19.6436 215.909 18.9649 216.765C18.272 217.612 17.1708 218.208 15.6616 218.552C14.1523 218.896 12.8869 218.853 11.8654 218.421C10.8321 217.992 10.1875 217.216 9.93138 216.093C9.67795 214.981 9.881 214.036 10.5405 213.258C11.1884 212.483 12.2435 211.928 13.706 211.595ZM13.5803 213.23C11.6498 213.67 10.83 214.528 11.1207 215.803C11.2541 216.388 11.6052 216.794 12.1739 217.021C12.731 217.251 13.5589 217.266 14.6576 217.064L13.7733 213.186L13.5803 213.23Z" fill="white"/>
<path d="M4.87789 203.777L13.0571 202.727L13.2584 204.043L5.13905 205.485L4.87789 203.777ZM15.2218 203.069C15.171 202.737 15.2429 202.453 15.4374 202.217C15.6183 201.971 15.863 201.824 16.1714 201.777C16.4798 201.73 16.763 201.796 17.021 201.975C17.2773 202.142 17.4308 202.392 17.4815 202.724C17.5305 203.044 17.4586 203.328 17.2659 203.576C17.0713 203.812 16.8198 203.954 16.5114 204.001C16.203 204.048 15.9266 203.987 15.6823 203.818C15.4243 203.639 15.2708 203.39 15.2218 203.069Z" fill="white"/>
<circle cx="347" cy="179" r="5" fill="#D9D9D9"/>
<circle cx="9" cy="179" r="5" fill="#D9D9D9"/>
</svg>
