<svg width="16" height="17" viewBox="0 0 16 17" fill="none" xmlns="http://www.w3.org/2000/svg">
<path d="M2.73528 12.0437C3.28344 12.994 4.0549 13.7965 4.98291 14.3816C5.91092 14.9667 6.96752 15.3169 8.06131 15.4019C9.15509 15.4868 10.2531 15.304 11.2603 14.8692C12.2676 14.4344 13.1537 13.7607 13.842 12.9065C11.1038 11.8551 9.43338 10.5658 8.43229 8.65452C7.41863 6.72005 7.1391 4.63082 7.69719 1.97092C6.82862 2.08602 5.98519 2.37039 5.20656 2.82015C3.65577 3.7156 2.52419 5.19039 2.06073 6.92013C1.59728 8.64987 1.83992 10.4929 2.73528 12.0437ZM12.4425 15.3546C11.4323 15.9367 10.3033 16.2824 9.14042 16.3658C7.9775 16.4492 6.81079 16.2681 5.72787 15.8361C4.64495 15.4041 3.67396 14.7324 2.88777 13.8714C2.10159 13.0105 1.52063 11.9826 1.18852 10.865C0.856407 9.74741 0.781763 8.56909 0.970189 7.41851C1.15862 6.26793 1.60522 5.17497 2.27647 4.22169C2.94773 3.2684 3.8262 2.47954 4.84595 1.91433C5.86569 1.34912 7.00022 1.02224 8.16437 0.958227C8.25462 0.953393 8.34474 0.969738 8.42754 1.00596C8.51035 1.04218 8.58353 1.09726 8.64124 1.16681C8.69895 1.23637 8.73958 1.31845 8.7599 1.40652C8.78022 1.49458 8.77965 1.58618 8.75825 1.67398C8.09279 4.39965 8.33847 6.38925 9.29023 8.20572C10.1936 9.93127 11.7509 11.1364 14.6584 12.1782C14.7419 12.2079 14.8174 12.2565 14.8791 12.32C14.9408 12.3836 14.9871 12.4605 15.0144 12.5448C15.0417 12.6291 15.0493 12.7186 15.0365 12.8063C15.0238 12.894 14.991 12.9776 14.9408 13.0506C14.2903 13.9945 13.437 14.781 12.4434 15.3526L12.4425 15.3546Z" fill="#384466" fill-opacity="0.5"/>
</svg>
