<svg width="18" height="18" viewBox="0 0 18 18" fill="none" xmlns="http://www.w3.org/2000/svg">
<path d="M8.91489 12.367C8.08962 12.367 7.29814 12.0391 6.71459 11.4556C6.13103 10.872 5.80319 10.0805 5.80319 9.25527C5.80319 8.43 6.13103 7.63852 6.71459 7.05496C7.29814 6.47141 8.08962 6.14357 8.91489 6.14357C9.74017 6.14357 10.5316 6.47141 11.1152 7.05496C11.6988 7.63852 12.0266 8.43 12.0266 9.25527C12.0266 10.0805 11.6988 10.872 11.1152 11.4556C10.5316 12.0391 9.74017 12.367 8.91489 12.367ZM8.91489 13.4042C10.0153 13.4042 11.0706 12.9671 11.8486 12.189C12.6267 11.4109 13.0638 10.3556 13.0638 9.25527C13.0638 8.1549 12.6267 7.09961 11.8486 6.32153C11.0706 5.54345 10.0153 5.10633 8.91489 5.10633C7.81453 5.10633 6.75923 5.54345 5.98115 6.32153C5.20307 7.09961 4.76596 8.1549 4.76596 9.25527C4.76596 10.3556 5.20307 11.4109 5.98115 12.189C6.75923 12.9671 7.81453 13.4042 8.91489 13.4042ZM8.91489 0.957397C9.05244 0.957397 9.18435 1.01204 9.28161 1.1093C9.37887 1.20656 9.43351 1.33847 9.43351 1.47601V3.55048C9.43351 3.68803 9.37887 3.81994 9.28161 3.9172C9.18435 4.01446 9.05244 4.0691 8.91489 4.0691C8.77735 4.0691 8.64543 4.01446 8.54817 3.9172C8.45092 3.81994 8.39628 3.68803 8.39628 3.55048V1.47601C8.39628 1.33847 8.45092 1.20656 8.54817 1.1093C8.64543 1.01204 8.77735 0.957397 8.91489 0.957397V0.957397ZM8.91489 14.4414C9.05244 14.4414 9.18435 14.4961 9.28161 14.5933C9.37887 14.6906 9.43351 14.8225 9.43351 14.9601V17.0345C9.43351 17.1721 9.37887 17.304 9.28161 17.4012C9.18435 17.4985 9.05244 17.5531 8.91489 17.5531C8.77735 17.5531 8.64543 17.4985 8.54817 17.4012C8.45092 17.304 8.39628 17.1721 8.39628 17.0345V14.9601C8.39628 14.8225 8.45092 14.6906 8.54817 14.5933C8.64543 14.4961 8.77735 14.4414 8.91489 14.4414ZM17.2128 9.25527C17.2128 9.39282 17.1581 9.52473 17.0609 9.62199C16.9636 9.71925 16.8317 9.77389 16.6941 9.77389H14.6197C14.4821 9.77389 14.3502 9.71925 14.253 9.62199C14.1557 9.52473 14.1011 9.39282 14.1011 9.25527C14.1011 9.11772 14.1557 8.98581 14.253 8.88855C14.3502 8.79129 14.4821 8.73665 14.6197 8.73665H16.6941C16.8317 8.73665 16.9636 8.79129 17.0609 8.88855C17.1581 8.98581 17.2128 9.11772 17.2128 9.25527ZM3.72872 9.25527C3.72872 9.39282 3.67408 9.52473 3.57682 9.62199C3.47956 9.71925 3.34765 9.77389 3.2101 9.77389H1.13564C0.998091 9.77389 0.866179 9.71925 0.768919 9.62199C0.67166 9.52473 0.61702 9.39282 0.61702 9.25527C0.61702 9.11772 0.67166 8.98581 0.768919 8.88855C0.866179 8.79129 0.998091 8.73665 1.13564 8.73665H3.2101C3.34765 8.73665 3.47956 8.79129 3.57682 8.88855C3.67408 8.98581 3.72872 9.11772 3.72872 9.25527ZM14.7825 3.38764C14.8798 3.48489 14.9344 3.61678 14.9344 3.7543C14.9344 3.89182 14.8798 4.02371 14.7825 4.12096L13.3159 5.58865C13.2677 5.6368 13.2104 5.67498 13.1475 5.70101C13.0845 5.72705 13.017 5.74042 12.9488 5.74037C12.8112 5.74027 12.6793 5.68551 12.582 5.58813C12.5339 5.53991 12.4957 5.48268 12.4697 5.4197C12.4436 5.35673 12.4303 5.28924 12.4303 5.2211C12.4304 5.08348 12.4852 4.95153 12.5826 4.85429L14.0492 3.38764C14.1465 3.29041 14.2783 3.23579 14.4159 3.23579C14.5534 3.23579 14.6853 3.29041 14.7825 3.38764ZM5.24723 12.9229C5.34446 13.0202 5.39908 13.1521 5.39908 13.2896C5.39908 13.4271 5.34446 13.559 5.24723 13.6563L3.78058 15.1229C3.68277 15.2174 3.55177 15.2696 3.41579 15.2685C3.27981 15.2673 3.14973 15.2127 3.05358 15.1166C2.95742 15.0204 2.90288 14.8904 2.9017 14.7544C2.90052 14.6184 2.95279 14.4874 3.04726 14.3896L4.51391 12.9229C4.61116 12.8257 4.74305 12.7711 4.88057 12.7711C5.01809 12.7711 5.14998 12.8257 5.24723 12.9229ZM14.7825 15.1229C14.6853 15.2201 14.5534 15.2747 14.4159 15.2747C14.2783 15.2747 14.1465 15.2201 14.0492 15.1229L12.5826 13.6563C12.4881 13.5584 12.4358 13.4274 12.437 13.2915C12.4382 13.1555 12.4927 13.0254 12.5889 12.9292C12.685 12.8331 12.8151 12.7785 12.9511 12.7774C13.0871 12.7762 13.2181 12.8285 13.3159 12.9229L14.7825 14.3896C14.8798 14.4868 14.9344 14.6187 14.9344 14.7562C14.9344 14.8938 14.8798 15.0256 14.7825 15.1229ZM5.24723 5.58865C5.14998 5.68587 5.01809 5.74049 4.88057 5.74049C4.74305 5.74049 4.61116 5.68587 4.51391 5.58865L3.04726 4.12096C2.99773 4.07312 2.95822 4.01589 2.93104 3.95262C2.90386 3.88935 2.88955 3.82129 2.88895 3.75243C2.88835 3.68357 2.90147 3.61528 2.92755 3.55154C2.95363 3.48781 2.99214 3.4299 3.04083 3.38121C3.08953 3.33251 3.14743 3.29401 3.21117 3.26793C3.2749 3.24185 3.34319 3.22873 3.41205 3.22933C3.48092 3.22993 3.54897 3.24423 3.61224 3.27141C3.67552 3.29859 3.73274 3.3381 3.78058 3.38764L5.24723 4.85429C5.29553 4.90246 5.33385 4.95969 5.35999 5.0227C5.38614 5.0857 5.3996 5.15325 5.3996 5.22147C5.3996 5.28968 5.38614 5.35723 5.35999 5.42024C5.33385 5.48324 5.29553 5.54047 5.24723 5.58865Z" fill="url(#paint0_linear_338_21)" fill-opacity="0.74"/>
<defs>
<linearGradient id="paint0_linear_338_21" x1="6.01064" y1="0.957397" x2="10.9894" y2="13.8191" gradientUnits="userSpaceOnUse">
<stop stop-color="white"/>
<stop offset="1" stop-color="#C3C7D7"/>
</linearGradient>
</defs>
</svg>
